/* XPM */
static char * cwm_xpm[] = {
"34 16 9 1",
" 	c None",
"+	c #000000",
"@	c #2671A4",
"#	c #1664A1",
"$	c #061928",
"%	c #162127",
"&	c #4A7DA2",
"*	c #406E8D",
"=	c #515356",
"                                  ",
"                                  ",
"      ++++                        ",
"     +@@@@+                       ",
"    +@@++@@+                      ",
"   +@@+  +++++  ++  +++++++++++   ",
"  +@@+     +@+ +#+ +@@$@@@@@@@@+  ",
"  +@+      +@@+@@@+@@++@@+@@+@@+  ",
"  +@+      +@@+@+@%@++@@++@@+@++  ",
"  +@+    ++++@@@+@@@++@@+@@++@+   ",
"  +@@++++@@++@@++@@+ +@++@@++@+   ",
"   +@@@@&++ +@+ +@++ +*++@+ +@+   ",
"    +++++=  +++ +++  ++ +++ ++    ",
"                                  ",
"                                  ",
"                                  "};
