/* XPM */
static char * sapgui_xpm[] = {
"20 20 197 2",
"  	c None",
". 	c #6C6C6C",
"+ 	c #5D5D5D",
"@ 	c #8E8E8E",
"# 	c #C2C2C2",
"$ 	c #B9B9B9",
"% 	c #B0B0B0",
"& 	c #9C9C9C",
"* 	c #727272",
"= 	c #B8B8B8",
"- 	c #AFAFAF",
"; 	c #797977",
"> 	c #95956F",
", 	c #B0B0A2",
"' 	c #8B8B8B",
") 	c #434343",
"! 	c #B1B1B1",
"~ 	c #A1A1A1",
"{ 	c #414139",
"] 	c #808009",
"^ 	c #7F6E43",
"/ 	c #847676",
"( 	c #857B7B",
"_ 	c #5B3737",
": 	c #A5A0A0",
"< 	c #BDBDBD",
"[ 	c #B6B6A1",
"} 	c #F2F21C",
"| 	c #9C5909",
"1 	c #945B55",
"2 	c #C99F94",
"3 	c #CC4233",
"4 	c #8C7270",
"5 	c #A9A6A6",
"6 	c #BEBEA8",
"7 	c #B5B559",
"8 	c #F1F158",
"9 	c #EFC36C",
"0 	c #EDA34C",
"a 	c #F5AE15",
"b 	c #F4DA0C",
"c 	c #DA6449",
"d 	c #714848",
"e 	c #7A7A7A",
"f 	c #BEBEA5",
"g 	c #B6B64B",
"h 	c #F3F326",
"i 	c #FEF128",
"j 	c #FDE556",
"k 	c #FDCF6B",
"l 	c #FD9A03",
"m 	c #F62A16",
"n 	c #6F2A2A",
"o 	c #717171",
"p 	c #9D9DAC",
"q 	c #6E6E8E",
"r 	c #73738C",
"s 	c #B7B7BA",
"t 	c #BDBDA4",
"u 	c #B5B548",
"v 	c #F1F10B",
"w 	c #FDFD01",
"x 	c #FBFB33",
"y 	c #FBCD57",
"z 	c #FC4101",
"A 	c #FB0A01",
"B 	c #702222",
"C 	c #707070",
"D 	c #6E6EA2",
"E 	c #010178",
"F 	c #0B0B74",
"G 	c #8080C4",
"H 	c #B4B4C7",
"I 	c #B6B648",
"J 	c #F2F20B",
"K 	c #FBFB01",
"L 	c #FDBE01",
"M 	c #FD0101",
"N 	c #FC0101",
"O 	c #BBBBBF",
"P 	c #6868D7",
"Q 	c #0101FD",
"R 	c #0202FE",
"S 	c #0101FC",
"T 	c #7F7FD8",
"U 	c #B7B7C0",
"V 	c #B3B39D",
"W 	c #AFAF47",
"X 	c #FEFE02",
"Y 	c #FCFC01",
"Z 	c #FE0202",
"` 	c #712323",
" .	c #4E4E83",
"..	c #0F0FA6",
"+.	c #0101FB",
"@.	c #1212F8",
"#.	c #19199F",
"$.	c #232333",
"%.	c #4C4C32",
"&.	c #E4E408",
"*.	c #FCBE01",
"=.	c #FB0101",
"-.	c #3E9DC8",
";.	c #0151E0",
">.	c #0106FD",
",.	c #01019F",
"'.	c #050524",
").	c #14141F",
"!.	c #474722",
"~.	c #B1B10C",
"{.	c #EADE01",
"].	c #FDA901",
"^.	c #F80707",
"/.	c #B04C4C",
"(.	c #9B8282",
"_.	c #A9A9A9",
":.	c #3D8BEB",
"<.	c #0143FB",
"[.	c #010BFB",
"}.	c #011DFC",
"|.	c #013EFB",
"1.	c #0116E0",
"2.	c #0101AB",
"3.	c #01017A",
"4.	c #010187",
"5.	c #505077",
"6.	c #7F7557",
"7.	c #975C35",
"8.	c #AE1129",
"9.	c #836E71",
"0.	c #ADADAD",
"a.	c #C1C1C1",
"b.	c #3D3DEB",
"c.	c #010DFD",
"d.	c #0133FD",
"e.	c #016AFC",
"f.	c #0125A8",
"g.	c #0107AD",
"h.	c #010AED",
"i.	c #0101D4",
"j.	c #130896",
"k.	c #4C2271",
"l.	c #76707B",
"m.	c #3E3EEB",
"n.	c #020271",
"o.	c #011789",
"p.	c #0129FD",
"q.	c #0209FE",
"r.	c #010AFC",
"s.	c #0204FE",
"t.	c #0101FA",
"u.	c #0E0DEC",
"v.	c #3835C2",
"w.	c #737386",
"x.	c #AEAEAE",
"y.	c #010170",
"z.	c #012289",
"A.	c #0154FC",
"B.	c #016BFC",
"C.	c #0182FB",
"D.	c #012AFD",
"E.	c #0101E4",
"F.	c #1407B1",
"G.	c #501F6F",
"H.	c #76707A",
"I.	c #9A9AD0",
"J.	c #4D4DE4",
"K.	c #0101F8",
"L.	c #010C8A",
"M.	c #011DFD",
"N.	c #0228FE",
"O.	c #012FFD",
"P.	c #026FFE",
"Q.	c #0F50C8",
"R.	c #48066C",
"S.	c #BD132A",
"T.	c #776164",
"U.	c #A8A8A8",
"V.	c #9292CD",
"W.	c #5555DE",
"X.	c #5555E3",
"Y.	c #5555E2",
"Z.	c #565694",
"`.	c #30309D",
" +	c #0101CF",
".+	c #0606B8",
"++	c #4B4BDC",
"@+	c #56A3E3",
"#+	c #5F95BE",
"$+	c #8A5881",
"%+	c #D95D5D",
"&+	c #978686",
"*+	c #B2B2B2",
"=+	c #8282BA",
"-+	c #3232A3",
";+	c #3B3B79",
">+	c #B0B0B8",
"                                        ",
"                                        ",
"                  ; >       )           ",
"                  { ] ^ / ( _ :         ",
"                    } | 1 2 3 4         ",
"                  7 8 9 0 a b c d e     ",
"                  g h i j k l m n o     ",
"      q r         u v w x y z A B C     ",
"    D E F G       I J w K L M N B C     ",
"    P Q R S T     W v X Y L Z N ` C     ",
"   ...S S +.@.#.$.%.&.w K *.N =.B C     ",
"  -.;.>.R Q R ,.'.).!.~.{.].^./.(._.    ",
"  :.<.[.}.|.1.2.E 3.4.5.6.7.8.9.        ",
"  b.+.c.d.e.f.g.h.Q S Q i.j.k.l.        ",
"  m.S Q R S n.o.p.q.r.s.t.u.v.w.        ",
"  b.+.S S +.y.z.A.B.C.D.E.F.G.H.        ",
"  I.J.K.R Q n.L.M.N.O.P.Q.R.S.T.        ",
"    V.W.X.Y.Z.`. +.+++@+#+$+%+&+        ",
"              =+-+;+                    ",
"                                        "};
