/* XPM */
static char * yahoo_kde_xpm[] = {
"48 39 746 2",
"  	c None",
". 	c #EE2636",
"+ 	c #F23439",
"@ 	c #F33738",
"# 	c #F43D39",
"$ 	c #F33F3B",
"% 	c #F43E3C",
"& 	c #F33E3D",
"* 	c #F3423D",
"= 	c #F5443F",
"- 	c #F44541",
"; 	c #F54643",
"> 	c #F64945",
", 	c #F64B48",
"' 	c #F54948",
") 	c #F34246",
"! 	c #F12C38",
"~ 	c #F01D2B",
"{ 	c #EF1E2F",
"] 	c #EF474F",
"^ 	c #F45E51",
"/ 	c #F5594A",
"( 	c #F76350",
"_ 	c #F8785E",
": 	c #FB8666",
"< 	c #FB8C6A",
"[ 	c #FB865E",
"} 	c #FB7856",
"| 	c #FB6C4D",
"1 	c #FA6148",
"2 	c #FA513F",
"3 	c #F73F36",
"4 	c #F2393A",
"5 	c #F1383A",
"6 	c #EF363D",
"7 	c #EE333D",
"8 	c #E93140",
"9 	c #F14650",
"0 	c #F78287",
"a 	c #F56671",
"b 	c #E97587",
"c 	c #E2485C",
"d 	c #E73A49",
"e 	c #EA5860",
"f 	c #EA6669",
"g 	c #ED5957",
"h 	c #F87C69",
"i 	c #FB8C68",
"j 	c #FA5F45",
"k 	c #F94C3D",
"l 	c #F0282F",
"m 	c #E54C5F",
"n 	c #DC4258",
"o 	c #D85063",
"p 	c #D35366",
"q 	c #CF5C6D",
"r 	c #F86860",
"s 	c #FC9C89",
"t 	c #FB8270",
"u 	c #F86560",
"v 	c #F24955",
"w 	c #EF4054",
"x 	c #F02E42",
"y 	c #EC4A53",
"z 	c #F97965",
"A 	c #FB8364",
"B 	c #F43231",
"C 	c #ED4D61",
"D 	c #F55E6F",
"E 	c #F55B6D",
"F 	c #F45A6C",
"G 	c #F25A6C",
"H 	c #F1596B",
"I 	c #EF5A6C",
"J 	c #E6192C",
"K 	c #E51427",
"L 	c #E71327",
"M 	c #E9192E",
"N 	c #FA8479",
"O 	c #FB9276",
"P 	c #FB6F54",
"Q 	c #FA5345",
"R 	c #F22C31",
"S 	c #E91424",
"T 	c #EF172A",
"U 	c #EB4B62",
"V 	c #ED4D55",
"W 	c #FA8572",
"X 	c #FB7E63",
"Y 	c #FA5E45",
"Z 	c #FA523F",
"` 	c #F94338",
" .	c #F02935",
"..	c #EE3751",
"+.	c #F21A2E",
"@.	c #F5162B",
"#.	c #F4162B",
"$.	c #F3162B",
"%.	c #F2152A",
"&.	c #F1152A",
"*.	c #F01529",
"=.	c #EF1529",
"-.	c #EE1529",
";.	c #EE1428",
">.	c #EC1428",
",.	c #EA1327",
"'.	c #E81327",
").	c #E53749",
"!.	c #FCB3A3",
"~.	c #FB8765",
"{.	c #FB6349",
"].	c #FA483B",
"^.	c #F2282D",
"/.	c #E81524",
"(.	c #EB1629",
"_.	c #E68592",
":.	c #EE555D",
"<.	c #FBA090",
"[.	c #FB7962",
"}.	c #FA493A",
"|.	c #F73633",
"1.	c #ED2437",
"2.	c #EF4864",
"3.	c #E76E7F",
"4.	c #E3485D",
"5.	c #E12A40",
"6.	c #E61C33",
"7.	c #F0152D",
"8.	c #F7172D",
"9.	c #F8192E",
"0.	c #F6172C",
"a.	c #F4152A",
"b.	c #F01428",
"c.	c #E71A2E",
"d.	c #DD293E",
"e.	c #DA4C5F",
"f.	c #DB6979",
"g.	c #F58696",
"h.	c #FCC8BB",
"i.	c #FB855F",
"j.	c #F9473B",
"k.	c #F1252C",
"l.	c #EA1425",
"m.	c #E53D51",
"n.	c #F48188",
"o.	c #FCB5A8",
"p.	c #FB7160",
"q.	c #FA4A3B",
"r.	c #FA3F35",
"s.	c #F32B2E",
"t.	c #EB3B4E",
"u.	c #F594A5",
"v.	c #F0B5BD",
"w.	c #ED263D",
"x.	c #F01429",
"y.	c #EB1A31",
"z.	c #DC4659",
"A.	c #D27C87",
"B.	c #D79DA2",
"C.	c #F6848F",
"D.	c #FCC7BA",
"E.	c #FB855E",
"F.	c #F9453A",
"G.	c #EF232A",
"H.	c #E3192B",
"I.	c #DF7885",
"J.	c #F69CA6",
"K.	c #FCC2BD",
"L.	c #FB695C",
"M.	c #FA4137",
"N.	c #F93532",
"O.	c #F0222E",
"P.	c #EA1C33",
"Q.	c #F12540",
"R.	c #F5172C",
"S.	c #F1162A",
"T.	c #EA172B",
"U.	c #E23144",
"V.	c #D87581",
"W.	c #F5777E",
"X.	c #FCBEAB",
"Y.	c #F74339",
"Z.	c #EC1F2A",
"`.	c #E13A4D",
" +	c #F17386",
".+	c #F8B0B9",
"++	c #FCAFA8",
"@+	c #FA544A",
"#+	c #FA3733",
"$+	c #F72C2F",
"%+	c #EE2132",
"&+	c #ED334C",
"*+	c #F32E46",
"=+	c #F41A30",
"-+	c #ED1529",
";+	c #E21C31",
">+	c #D93A4C",
",+	c #DB8B95",
"'+	c #F87C7F",
")+	c #FBAF95",
"!+	c #FB855D",
"~+	c #F63D36",
"{+	c #E81F2E",
"]+	c #DF4F61",
"^+	c #F27384",
"/+	c #F9ADAE",
"(+	c #FC988E",
"_+	c #FA403A",
":+	c #FA3031",
"<+	c #F4252D",
"[+	c #EC293D",
"}+	c #EF4E66",
"|+	c #F22035",
"1+	c #F2192D",
"2+	c #EB1528",
"3+	c #E02438",
"4+	c #DA5E6D",
"5+	c #F98984",
"6+	c #FCA485",
"7+	c #FB845D",
"8+	c #FB6148",
"9+	c #F43634",
"0+	c #E63241",
"a+	c #F15E6C",
"b+	c #FAA8A0",
"c+	c #FB7D71",
"d+	c #FA3535",
"e+	c #F82C2F",
"f+	c #F11F2C",
"g+	c #ED2F44",
"h+	c #F24860",
"i+	c #F22F43",
"j+	c #EF1728",
"k+	c #E61527",
"l+	c #DD273C",
"m+	c #FB9387",
"n+	c #FC9C7A",
"o+	c #FA5F47",
"p+	c #F13133",
"q+	c #E43143",
"r+	c #F25761",
"s+	c #FB9587",
"t+	c #FB6058",
"u+	c #F93033",
"v+	c #F72730",
"w+	c #EF1B2A",
"x+	c #EC2338",
"y+	c #EF263E",
"z+	c #F22438",
"A+	c #ED1626",
"B+	c #E41627",
"C+	c #DC3A4E",
"D+	c #FA968D",
"E+	c #FC9D77",
"F+	c #FB845C",
"G+	c #F95B46",
"H+	c #ED373F",
"I+	c #E24556",
"J+	c #F34D55",
"K+	c #FC8577",
"L+	c #FA524F",
"M+	c #F92B33",
"N+	c #F5232D",
"O+	c #EA182B",
"P+	c #ED1C34",
"Q+	c #F41B2C",
"R+	c #ED1525",
"S+	c #E71526",
"T+	c #F67D8A",
"U+	c #FA9A8D",
"V+	c #FC9E77",
"W+	c #F75645",
"X+	c #E94855",
"Y+	c #E38693",
"Z+	c #F06B80",
"`+	c #F65155",
" @	c #FB746A",
".@	c #FA3D42",
"+@	c #F92731",
"@@	c #F5202E",
"#@	c #F51E2D",
"$@	c #F61D2D",
"%@	c #EC1829",
"&@	c #DD384A",
"*@	c #F5676A",
"=@	c #FA9F85",
"-@	c #FCA077",
";@	c #FB825C",
">@	c #F45549",
",@	c #E54656",
"'@	c #F14256",
")@	c #F8363B",
"!@	c #FA383D",
"~@	c #F92933",
"{@	c #F9242E",
"]@	c #F8202F",
"^@	c #F51E2F",
"/@	c #E53044",
"(@	c #F77E78",
"_@	c #FBA78A",
":@	c #FCA177",
"<@	c #FA7F5B",
"[@	c #F1524E",
"}@	c #F54D4F",
"|@	c #FB625D",
"1@	c #F93038",
"2@	c #F41C2B",
"3@	c #EA1B2D",
"4@	c #E3334A",
"5@	c #FA9988",
"6@	c #FBAF8F",
"7@	c #F9785A",
"8@	c #E94A53",
"9@	c #F66668",
"0@	c #FB857E",
"a@	c #FA363D",
"b@	c #F11A29",
"c@	c #E6162B",
"d@	c #E22037",
"e@	c #FAAEA0",
"f@	c #FCB694",
"g@	c #F46455",
"h@	c #DF6C7C",
"i@	c #F68890",
"j@	c #FCA9A7",
"k@	c #FA3E46",
"l@	c #F11C2A",
"m@	c #EC3125",
"n@	c #F28B38",
"o@	c #FCDD43",
"p@	c #FBD627",
"q@	c #FBD523",
"r@	c #FBD522",
"s@	c #FBD72E",
"t@	c #FCE14F",
"u@	c #F99E96",
"v@	c #FCB292",
"w@	c #FB9D75",
"x@	c #EB4F53",
"y@	c #F79BA7",
"z@	c #FCB3B4",
"A@	c #FA4149",
"B@	c #F9322C",
"C@	c #F77222",
"D@	c #F9B228",
"E@	c #FBDB49",
"F@	c #FCEC70",
"G@	c #FCED7B",
"H@	c #FCEC71",
"I@	c #FCE961",
"J@	c #FCE547",
"K@	c #FCE13C",
"L@	c #FCDA31",
"M@	c #FBD939",
"N@	c #E8727B",
"O@	c #EA6667",
"P@	c #F05952",
"Q@	c #DF6676",
"R@	c #F7858A",
"S@	c #FC9B93",
"T@	c #FA6239",
"U@	c #FBA92B",
"V@	c #FCE061",
"W@	c #FCF6B0",
"X@	c #FDF7B0",
"Y@	c #FCF490",
"Z@	c #FCF177",
"`@	c #FCF06D",
" #	c #FCF06A",
".#	c #FCEF63",
"+#	c #FCED58",
"@#	c #FCE74B",
"##	c #FCE13D",
"$#	c #FBDA30",
"%#	c #FCE364",
"&#	c #E6B1B6",
"*#	c #F6655F",
"=#	c #FBA35F",
"-#	c #FBC548",
";#	c #FDF1A8",
">#	c #FDFCD8",
",#	c #FDF8AC",
"'#	c #FCF480",
")#	c #FCF37F",
"!#	c #FCF585",
"~#	c #FCF688",
"{#	c #FCF687",
"]#	c #FCF47B",
"^#	c #FCF06F",
"/#	c #FCEC5E",
"(#	c #FCE747",
"_#	c #FBDC31",
":#	c #FCE366",
"<#	c #F46873",
"[#	c #F78357",
"}#	c #FCD05D",
"|#	c #FDF3BB",
"1#	c #FDFBE2",
"2#	c #FDF8A6",
"3#	c #FBF384",
"4#	c #F2E68E",
"5#	c #EFE398",
"6#	c #FCF699",
"7#	c #FDF99B",
"8#	c #FDF99A",
"9#	c #FAF39A",
"0#	c #E9DB95",
"a#	c #F6EB8A",
"b#	c #FCF37C",
"c#	c #FCEE66",
"d#	c #FCE74A",
"e#	c #FADC64",
"f#	c #F7A1AB",
"g#	c #F7959B",
"h#	c #F68D92",
"i#	c #F88D84",
"j#	c #F6727D",
"k#	c #F7666D",
"l#	c #F7656C",
"m#	c #F6646A",
"n#	c #F66E75",
"o#	c #F99C91",
"p#	c #FBC76A",
"q#	c #FDEDAC",
"r#	c #FDFCEF",
"s#	c #FDF8B1",
"t#	c #FCF588",
"u#	c #F2EA96",
"v#	c #B09BA6",
"w#	c #AB97AA",
"x#	c #EEE4A5",
"y#	c #FDFAA4",
"z#	c #DECDA2",
"A#	c #8F79AB",
"B#	c #C9B7A0",
"C#	c #FCF591",
"D#	c #FCF47F",
"E#	c #FAD52E",
"F#	c #F3C366",
"G#	c #F8BBBF",
"H#	c #FCD8CD",
"I#	c #FCCCB5",
"J#	c #FBA68A",
"K#	c #EE717E",
"L#	c #F24651",
"M#	c #F23233",
"N#	c #F23034",
"O#	c #F2383C",
"P#	c #F34549",
"Q#	c #F77E51",
"R#	c #FCDB77",
"S#	c #FEFBEB",
"T#	c #FDFAC9",
"U#	c #FCF58F",
"V#	c #FDF794",
"W#	c #EDE6A1",
"X#	c #8C76B1",
"Y#	c #8472AF",
"Z#	c #E5D8A7",
"`#	c #FDFBA7",
" $	c #D2BBA4",
".$	c #6151B5",
"+$	c #B2A1AC",
"@$	c #FCF89C",
"#$	c #FDF790",
"$$	c #FCF47C",
"%$	c #FCEE5E",
"&$	c #FCDF38",
"*$	c #F5BE39",
"=$	c #F0AD96",
"-$	c #FCDED3",
";$	c #FCD2BB",
">$	c #FA9982",
",$	c #F3AF4E",
"'$	c #FDF1B7",
")$	c #FEFDEE",
"!$	c #FCF7A4",
"~$	c #FDF690",
"{$	c #FDFA9D",
"]$	c #F9F5A4",
"^$	c #DFD3A9",
"/$	c #D9CDA9",
"($	c #F8F2AA",
"_$	c #FDFBAB",
":$	c #F4ECA8",
"<$	c #D1C5AB",
"[$	c #EBE3A9",
"}$	c #FDFAA3",
"|$	c #FCF68A",
"1$	c #FCF171",
"2$	c #FCE648",
"3$	c #F7CA2A",
"4$	c #E78E4C",
"5$	c #EF878B",
"6$	c #F79B8F",
"7$	c #F16864",
"8$	c #FBE67D",
"9$	c #FEFCEE",
"0$	c #FEFAD1",
"a$	c #FCF695",
"b$	c #FDF998",
"c$	c #FDFAA1",
"d$	c #FDFAA6",
"e$	c #FCFAA9",
"f$	c #FCF8AB",
"g$	c #FDFAAC",
"h$	c #FCF9AB",
"i$	c #FDFBA8",
"j$	c #FDFAA0",
"k$	c #FDF893",
"l$	c #FCF47D",
"m$	c #FCED57",
"n$	c #F9D730",
"o$	c #E8B24C",
"p$	c #DAA7A5",
"q$	c #DE979E",
"r$	c #DA7D89",
"s$	c #FCE36C",
"t$	c #FDFEFC",
"u$	c #FCF6B1",
"v$	c #F8D24E",
"w$	c #F5CA4B",
"x$	c #F5D156",
"y$	c #F7D45B",
"z$	c #F7D55E",
"A$	c #F8D65F",
"B$	c #F8D65E",
"C$	c #F6D257",
"D$	c #F5CF52",
"E$	c #F6CA40",
"F$	c #FCED5D",
"G$	c #FBDD37",
"H$	c #E0B030",
"I$	c #B38252",
"J$	c #FDE675",
"K$	c #FEFEF9",
"L$	c #FCF4A9",
"M$	c #EFB23D",
"N$	c #DCB693",
"O$	c #E1D9D0",
"P$	c #F2E9DC",
"Q$	c #FBF4E8",
"R$	c #FDF8EC",
"S$	c #FCF7EB",
"T$	c #F7EFE3",
"U$	c #EAE2D8",
"V$	c #E0D4C7",
"W$	c #ECAC3E",
"X$	c #FCEC62",
"Y$	c #FCE03A",
"Z$	c #D2A726",
"`$	c #875930",
" %	c #FDE87B",
".%	c #FEFEF8",
"+%	c #FCF5A9",
"@%	c #F0B53E",
"#%	c #B49E8D",
"$%	c #AEB1BD",
"%%	c #C9C2C8",
"&%	c #D7CBCC",
"*%	c #DCCDCE",
"=%	c #DCCECE",
"-%	c #DDCECE",
";%	c #DACCCD",
">%	c #D1C7CA",
",%	c #BDBBC3",
"'%	c #B0B0B8",
")%	c #E5AB3E",
"!%	c #FCEC61",
"~%	c #FCDF39",
"{%	c #CFA425",
"]%	c #7E532D",
"^%	c #FDE678",
"/%	c #FEFEFB",
"(%	c #FCF6AC",
"_%	c #F0B639",
":%	c #74472D",
"<%	c #51353A",
"[%	c #723E42",
"}%	c #914446",
"|%	c #A44848",
"1%	c #AE4A49",
"2%	c #B14B49",
"3%	c #B24B49",
"4%	c #AB4B48",
"5%	c #9C4747",
"6%	c #824244",
"7%	c #613A3F",
"8%	c #5E3939",
"9%	c #DCA42D",
"0%	c #FCEA5C",
"a%	c #FBDC35",
"b%	c #CB9D28",
"c%	c #79553B",
"d%	c #FCE466",
"e%	c #FDF0A1",
"f%	c #FCF394",
"g%	c #F5C845",
"h%	c #833915",
"i%	c #530D0F",
"j%	c #8A1414",
"k%	c #B51916",
"l%	c #D11A14",
"m%	c #DC1E16",
"n%	c #DF1F16",
"o%	c #E01E16",
"p%	c #DF1E16",
"q%	c #D81D15",
"r%	c #C51B15",
"s%	c #A01716",
"t%	c #6D1012",
"u%	c #741E10",
"v%	c #E3AE31",
"w%	c #FCE851",
"x%	c #F8D42E",
"y%	c #D19D3A",
"z%	c #A18178",
"A%	c #FCE77C",
"B%	c #FCF4A4",
"C%	c #FADF60",
"D%	c #B4591E",
"E%	c #791414",
"F%	c #B51918",
"G%	c #DC1D17",
"H%	c #EF1F15",
"I%	c #F22318",
"J%	c #F32F20",
"K%	c #F43523",
"L%	c #F2261C",
"M%	c #F12116",
"N%	c #E71F16",
"O%	c #CA1B18",
"P%	c #971517",
"Q%	c #AD4217",
"R%	c #F0C643",
"S%	c #FCE643",
"T%	c #EBC228",
"U%	c #B17C36",
"V%	c #FCE573",
"W%	c #FDF3AE",
"X%	c #FCEE81",
"Y%	c #EC9C28",
"Z%	c #A52716",
"`%	c #C81E19",
" &	c #EC1E15",
".&	c #F2251A",
"+&	c #F53E2A",
"@&	c #F75F43",
"#&	c #F86A4B",
"$&	c #F65239",
"%&	c #F32D1F",
"&&	c #F12015",
"*&	c #DC1D16",
"=&	c #BB2518",
"-&	c #DD831E",
";&	c #FADE4B",
">&	c #FBDA32",
",&	c #D7A427",
"'&	c #83604D",
")&	c #FCEA86",
"!&	c #FCF3A2",
"~&	c #F9DB58",
"{&	c #DB691F",
"]&	c #D92618",
"^&	c #F01F15",
"/&	c #F43321",
"(&	c #F86447",
"_&	c #FA8D6F",
":&	c #FA967B",
"<&	c #F98060",
"[&	c #F54A32",
"}&	c #F1241A",
"|&	c #E72716",
"1&	c #E15B18",
"2&	c #F4C036",
"3&	c #EDC125",
"4&	c #A26F3A",
"5&	c #FCE66E",
"6&	c #FCEE94",
"7&	c #FCF18F",
"8&	c #F6C040",
"9&	c #ED6619",
"0&	c #F03916",
"a&	c #F44329",
"b&	c #F97C5B",
"c&	c #FBA58D",
"d&	c #FBAD9A",
"e&	c #FA9678",
"f&	c #F65E3C",
"g&	c #F23A1B",
"h&	c #F15E17",
"i&	c #F5AB28",
"j&	c #FBDD3A",
"k&	c #F6CF28",
"l&	c #BF8A31",
"m&	c #906D65",
"n&	c #FCE677",
"o&	c #FCEA7D",
"p&	c #F7C840",
"q&	c #F49526",
"r&	c #F47C28",
"s&	c #F78D45",
"t&	c #F8A367",
"u&	c #F8A870",
"v&	c #F79C57",
"w&	c #F58631",
"x&	c #F48D24",
"y&	c #F7BA2C",
"z&	c #FBD734",
"A&	c #F4C928",
"B&	c #C29130",
"C&	c #886851",
"D&	c #F6D564",
"E&	c #F9D956",
"F&	c #FCE242",
"G&	c #FADB3D",
"H&	c #F9CE3B",
"I&	c #F8C63C",
"J&	c #F8C742",
"K&	c #F9C842",
"L&	c #F8C73C",
"M&	c #F8CB37",
"N&	c #FAD534",
"O&	c #FAD62E",
"P&	c #DFB129",
"Q&	c #AB7F33",
"R&	c #8A6647",
"S&	c #EBBD3E",
"T&	c #F5C927",
"U&	c #FBD92E",
"V&	c #FBDC34",
"W&	c #FCDE37",
"X&	c #FCDE36",
"Y&	c #FBDD32",
"Z&	c #FAD52A",
"`&	c #E5B626",
" *	c #B68A35",
".*	c #A8805B",
"+*	c #CA9A58",
"@*	c #C4913D",
"#*	c #B37E2C",
"$*	c #B07B2A",
"%*	c #9F702E",
"&*	c #9D774E",
"**	c #AF8972",
"=*	c #B59286",
". + @ # $ % & * = - ; > , ' ) ! ~ {                                                             ",
"] ^ / ( _ : < [ } | 1 2 3 4 5 6 7 8                                             9 0 a           ",
"b c d e f g h i } | j k l m n o p q                                             r s t u v w x   ",
"            y z A | j 2 B C                   D E F G H I I I I I I J K L M     N O P Q R S T U ",
"              V W X Y Z `  ...                +.@.@.#.$.%.&.*.=.-.;.>.,.'.).    !.~.{.].^./.(._.",
"                :.<.[.Z }.|.1.2.              3.4.5.6.7.8.9.0.#.a.b.c.d.e.f.  g.h.i.{.j.k.l.m.  ",
"                  n.o.p.q.r.s.t.u.                  v.w.8.@.x.y.z.A.B.        C.D.E.{.F.G.H.I.  ",
"                    J.K.L.M.N.O.P.                  Q.R.S.T.U.V.              W.X.E.{.Y.Z.`.    ",
"                     +.+++@+#+$+%+&+              *+=+-+;+>+,+                '+)+!+{.~+{+]+    ",
"                      ^+/+(+_+:+<+[+}+          |+1+2+3+4+                    5+6+7+8+9+0+      ",
"                        a+b+c+d+e+f+g+      h+i+j+k+l+                        m+n+7+o+p+q+      ",
"                          r+s+t+u+v+w+x+  y+z+A+B+C+                          D+E+F+G+H+I+      ",
"                            J+K+L+M+N+O+P+Q+R+S+>+                          T+U+V+F+W+X+Y+      ",
"                            Z+`+ @.@+@@@#@$@%@&@                            *@=@-@;@>@,@        ",
"                              '@)@!@~@{@]@^@/@                              (@_@:@<@[@          ",
"                                }@|@1@{@2@3@4@                              5@6@:@7@8@          ",
"                                9@0@a@{@b@c@d@                              e@f@:@g@h@          ",
"                                i@j@k@{@l@m@n@o@p@q@r@s@t@                  u@v@w@x@            ",
"                                y@z@A@B@C@D@E@F@G@H@I@J@K@L@M@              N@O@P@Q@            ",
"                                R@S@T@U@V@W@X@Y@Z@`@ #.#+#@###$#%#              &#              ",
"                                *#=#-#;#>#,#'#)#!#~#{#!#]#^#/#(#_#:#                            ",
"                              <#[#}#|#1#2#3#4#5#6#7#8#9#0#a#b#c#d#_#e#  f#g#h#i#                ",
"                    j#k#l#m#n#o#p#q#r#s#t#u#v#w#x#y#y#z#A#B#C#D#c#(#E#F#G#H#I#J#K#              ",
"                    L#M#N#O#P#Q#R#S#T#U#V#W#X#Y#Z#`#`# $.$+$@$#$$$%$&$*$=$-$;$>$                ",
"                              ,$'$)$!$~${$]$^$/$($_$_$:$<$[$}$8#|$1$2$3$4$5$6$7$                ",
"                              8$9$0$a$b$c$d$e$f$g$g$g$g$h$i$d$j$k$l$m$n$o$p$q$r$                ",
"                              s$t$u$v$w$x$y$z$A$A$A$A$A$A$B$y$C$D$E$F$G$H$I$                    ",
"                              J$K$L$M$N$O$P$Q$R$R$R$R$R$R$S$T$U$V$W$X$Y$Z$`$                    ",
"                               %.%+%@%#%$%%%&%*%=%-%-%-%=%;%>%,%'%)%!%~%{%]%                    ",
"                              ^%/%(%_%:%<%[%}%|%1%2%3%2%4%5%6%7%8%9%0%a%b%c%                    ",
"                              d%e%f%g%h%i%j%k%l%m%n%o%p%q%r%s%t%u%v%w%x%y%z%                    ",
"                                A%B%C%D%E%F%G%H%I%J%K%L%M%N%O%P%Q%R%S%T%U%                      ",
"                                V%W%X%Y%Z%`% &.&+&@&#&$&%&&&*&=&-&;&>&,&'&                      ",
"                                  )&!&~&{&]&^&/&(&_&:&<&[&}&|&1&2&K@3&4&                        ",
"                                  5&6&7&8&9&0&a&b&c&d&e&f&g&h&i&j&k&l&m&                        ",
"                                    n&)&o&p&q&r&s&t&u&v&w&x&y&z&A&B&C&                          ",
"                                      D&E&F&G&H&I&J&K&L&M&N&O&P&Q&R&                            ",
"                                          S&T&U&V&W&X&Y&Z&`& *.*                                ",
"                                              +*@*#*$*%*&***=*                                  "};
